<svg id="visual" viewBox="0 0 1920 1080" width="1920" height="1080"
    xmlns="http://www.w3.org/2000/svg" xmlns:xlink="http://www.w3.org/1999/xlink" version="1.1">
    <rect x="0" y="0" width="1920" height="1080" fill="#131419"></rect>
    <path
        d="M0 164L45.7 169C91.3 174 182.7 184 274.2 184.3C365.7 184.7 457.3 175.3 548.8 174.7C640.3 174 731.7 182 823 196.3C914.3 210.7 1005.7 231.3 1097 228C1188.3 224.7 1279.7 197.3 1371.2 188.2C1462.7 179 1554.3 188 1645.8 196C1737.3 204 1828.7 211 1874.3 214.5L1920 218L1920 0L1874.3 0C1828.7 0 1737.3 0 1645.8 0C1554.3 0 1462.7 0 1371.2 0C1279.7 0 1188.3 0 1097 0C1005.7 0 914.3 0 823 0C731.7 0 640.3 0 548.8 0C457.3 0 365.7 0 274.2 0C182.7 0 91.3 0 45.7 0L0 0Z"
        fill="#38e9ff"></path>
    <path
        d="M0 156L45.7 152.7C91.3 149.3 182.7 142.7 274.2 144.3C365.7 146 457.3 156 548.8 156C640.3 156 731.7 146 823 146.7C914.3 147.3 1005.7 158.7 1097 155C1188.3 151.3 1279.7 132.7 1371.2 137.5C1462.7 142.3 1554.3 170.7 1645.8 172.7C1737.3 174.7 1828.7 150.3 1874.3 138.2L1920 126L1920 0L1874.3 0C1828.7 0 1737.3 0 1645.8 0C1554.3 0 1462.7 0 1371.2 0C1279.7 0 1188.3 0 1097 0C1005.7 0 914.3 0 823 0C731.7 0 640.3 0 548.8 0C457.3 0 365.7 0 274.2 0C182.7 0 91.3 0 45.7 0L0 0Z"
        fill="#2ad4ea"></path>
    <path
        d="M0 72L45.7 82.7C91.3 93.3 182.7 114.7 274.2 118C365.7 121.3 457.3 106.7 548.8 105.8C640.3 105 731.7 118 823 124.7C914.3 131.3 1005.7 131.7 1097 126.7C1188.3 121.7 1279.7 111.3 1371.2 101.5C1462.7 91.7 1554.3 82.3 1645.8 86.7C1737.3 91 1828.7 109 1874.3 118L1920 127L1920 0L1874.3 0C1828.7 0 1737.3 0 1645.8 0C1554.3 0 1462.7 0 1371.2 0C1279.7 0 1188.3 0 1097 0C1005.7 0 914.3 0 823 0C731.7 0 640.3 0 548.8 0C457.3 0 365.7 0 274.2 0C182.7 0 91.3 0 45.7 0L0 0Z"
        fill="#19c0d6"></path>
    <path
        d="M0 54L45.7 50.7C91.3 47.3 182.7 40.7 274.2 45C365.7 49.3 457.3 64.7 548.8 70.8C640.3 77 731.7 74 823 74C914.3 74 1005.7 77 1097 80.8C1188.3 84.7 1279.7 89.3 1371.2 85.8C1462.7 82.3 1554.3 70.7 1645.8 63.7C1737.3 56.7 1828.7 54.3 1874.3 53.2L1920 52L1920 0L1874.3 0C1828.7 0 1737.3 0 1645.8 0C1554.3 0 1462.7 0 1371.2 0C1279.7 0 1188.3 0 1097 0C1005.7 0 914.3 0 823 0C731.7 0 640.3 0 548.8 0C457.3 0 365.7 0 274.2 0C182.7 0 91.3 0 45.7 0L0 0Z"
        fill="#00acc1"></path>
</svg>