<svg id="visual" viewBox="0 0 1920 1080" width="1920" height="1080"
    xmlns="http://www.w3.org/2000/svg" xmlns:xlink="http://www.w3.org/1999/xlink" version="1.1">
    <rect x="0" y="0" width="1920" height="1080" fill="#131419"></rect>
    <path
        d="M0 786L53.3 798.2C106.7 810.3 213.3 834.7 320 846.3C426.7 858 533.3 857 640 848.3C746.7 839.7 853.3 823.3 960 826C1066.7 828.7 1173.3 850.3 1280 855.2C1386.7 860 1493.3 848 1600 840.2C1706.7 832.3 1813.3 828.7 1866.7 826.8L1920 825L1920 1081L1866.7 1081C1813.3 1081 1706.7 1081 1600 1081C1493.3 1081 1386.7 1081 1280 1081C1173.3 1081 1066.7 1081 960 1081C853.3 1081 746.7 1081 640 1081C533.3 1081 426.7 1081 320 1081C213.3 1081 106.7 1081 53.3 1081L0 1081Z"
        fill="#38e9ff"></path>
    <path
        d="M0 923L53.3 909C106.7 895 213.3 867 320 856.8C426.7 846.7 533.3 854.3 640 862.2C746.7 870 853.3 878 960 886.2C1066.7 894.3 1173.3 902.7 1280 906.2C1386.7 909.7 1493.3 908.3 1600 901C1706.7 893.7 1813.3 880.3 1866.7 873.7L1920 867L1920 1081L1866.7 1081C1813.3 1081 1706.7 1081 1600 1081C1493.3 1081 1386.7 1081 1280 1081C1173.3 1081 1066.7 1081 960 1081C853.3 1081 746.7 1081 640 1081C533.3 1081 426.7 1081 320 1081C213.3 1081 106.7 1081 53.3 1081L0 1081Z"
        fill="#2ad4ea"></path>
    <path
        d="M0 898L53.3 905.8C106.7 913.7 213.3 929.3 320 926C426.7 922.7 533.3 900.3 640 903.5C746.7 906.7 853.3 935.3 960 941.7C1066.7 948 1173.3 932 1280 923.8C1386.7 915.7 1493.3 915.3 1600 911.7C1706.7 908 1813.3 901 1866.7 897.5L1920 894L1920 1081L1866.7 1081C1813.3 1081 1706.7 1081 1600 1081C1493.3 1081 1386.7 1081 1280 1081C1173.3 1081 1066.7 1081 960 1081C853.3 1081 746.7 1081 640 1081C533.3 1081 426.7 1081 320 1081C213.3 1081 106.7 1081 53.3 1081L0 1081Z"
        fill="#19c0d6"></path>
    <path
        d="M0 1005L53.3 997.5C106.7 990 213.3 975 320 976C426.7 977 533.3 994 640 1006C746.7 1018 853.3 1025 960 1019.7C1066.7 1014.3 1173.3 996.7 1280 986.8C1386.7 977 1493.3 975 1600 972.3C1706.7 969.7 1813.3 966.3 1866.7 964.7L1920 963L1920 1081L1866.7 1081C1813.3 1081 1706.7 1081 1600 1081C1493.3 1081 1386.7 1081 1280 1081C1173.3 1081 1066.7 1081 960 1081C853.3 1081 746.7 1081 640 1081C533.3 1081 426.7 1081 320 1081C213.3 1081 106.7 1081 53.3 1081L0 1081Z"
        fill="#00acc1"></path>
</svg>