<svg id="visual" viewBox="0 0 1920 5400" width="1920" height="5400" xmlns="http://www.w3.org/2000/svg" xmlns:xlink="http://www.w3.org/1999/xlink" version="1.1">
    <rect width="1920" height="5400" fill="#141c2f"></rect>
    <g>
        <g transform="translate(452 486)">
            <path d="M221.3 -264.2C279.5 -214.9 314.3 -138.2 345.3 -48.2C376.3 41.9 403.6 145.3 374.8 236.2C345.9 327 260.9 405.2 178.7 392.2C96.5 379.3 17.1 275.3 -40.6 211.1C-98.3 146.9 -134.2 122.6 -180.6 84C-226.9 45.4 -283.8 -7.3 -270.8 -42C-257.8 -76.6 -175 -93.2 -118.2 -142.7C-61.4 -192.3 -30.7 -274.7 25.4 -305C81.6 -335.4 163.1 -313.5 221.3 -264.2Z" stroke="#BC6FF1" fill="none" stroke-width="50"></path>
        </g>
        <g transform="translate(1882 158)">
            <path d="M113.5 -150C147.2 -106.9 174.9 -71.3 212.5 -14.3C250.2 42.7 297.8 121.1 271.9 148.6C246 176.1 146.5 152.7 63.7 189C-19.2 225.2 -85.5 321.1 -132.8 322.3C-180.1 323.5 -208.5 230.1 -231.1 152.2C-253.6 74.3 -270.3 11.9 -261.7 -47.8C-253.1 -107.4 -219.2 -164.1 -171.4 -204.7C-123.6 -245.3 -61.8 -269.7 -11 -256.7C39.9 -243.6 79.7 -193.1 113.5 -150Z" stroke="#7b6ff1" fill="none" stroke-width="50"></path>
        </g>
        <g transform="translate(1563 5019)">
            <path d="M161 -135.1C241 -124.7 360.7 -104.7 380.1 -57.7C399.4 -10.7 318.5 63.2 253.4 118.4C188.3 173.6 139 210 72.5 261C6.1 311.9 -77.6 377.4 -158.6 374.4C-239.6 371.5 -317.9 300.1 -320.5 221.1C-323.1 142.1 -250 55.5 -210 -13.7C-169.9 -82.8 -163 -134.4 -133.5 -153.7C-104.1 -173.1 -52 -160.2 -5.8 -153.3C40.5 -146.4 80.9 -145.5 161 -135.1Z" stroke="#BC6FF1" fill="none" stroke-width="50"></path>
        </g>
        <g transform="translate(739 2765)">
            <path d="M84.2 -103.6C98.5 -88.5 92 -51.8 97 -17.9C102.1 16 118.8 47.1 108.3 59.8C97.8 72.5 60 66.8 33.7 63.9C7.5 61 -7.3 60.9 -28.4 60.7C-49.6 60.6 -77 60.5 -85.1 48.3C-93.1 36.1 -81.7 11.9 -74.5 -10.5C-67.4 -32.8 -64.6 -53.3 -52.9 -68.9C-41.2 -84.5 -20.6 -95.4 7.2 -103.9C35 -112.5 70 -118.8 84.2 -103.6Z" stroke="#7b6ff1" fill="none" stroke-width="50"></path>
        </g>
        <g transform="translate(203 4975)">
            <path d="M116.1 -117C157 -103.9 201.4 -73.6 208.9 -36.1C216.4 1.4 187 46.2 159.5 90.6C132.1 135 106.6 178.9 65.5 204.6C24.3 230.3 -32.4 237.7 -81 220.8C-129.5 203.9 -169.8 162.6 -176.5 117.9C-183.1 73.3 -156.1 25.3 -140.2 -17.7C-124.2 -60.6 -119.3 -98.5 -97.8 -115C-76.3 -131.5 -38.1 -126.7 -0.3 -126.3C37.6 -126 75.1 -130.1 116.1 -117Z" stroke="#BC6FF1" fill="none" stroke-width="50"></path>
        </g>
        <g transform="translate(1841 3421)">
            <path d="M114.2 -141.4C153.8 -102.9 195.6 -72.4 227.8 -20.8C259.9 30.7 282.3 103.3 255.6 145.7C228.9 188.1 153.1 200.3 80 232.3C6.9 264.3 -63.5 316.1 -132.1 312.8C-200.7 309.6 -267.4 251.3 -292.2 181.6C-317 112 -299.8 31.1 -260.6 -20.7C-221.4 -72.5 -160.1 -95.1 -113 -132.3C-65.9 -169.5 -32.9 -221.3 2.2 -223.9C37.3 -226.5 74.6 -179.9 114.2 -141.4Z" stroke="#7b6ff1" fill="none" stroke-width="50"></path>
        </g>
        <g transform="translate(11 3852)">
            <path d="M127.2 -146.9C178.5 -108.6 243 -81.4 243.2 -47.7C243.5 -13.9 179.5 26.4 135.6 55.7C91.8 85.1 68.1 103.6 42 111.5C15.8 119.4 -12.8 116.6 -61.4 120C-109.9 123.4 -178.4 133 -223.1 104.9C-267.8 76.8 -288.7 11.1 -267.2 -36.1C-245.7 -83.3 -181.9 -112.1 -130.4 -150.3C-78.8 -188.4 -39.4 -236.1 -0.7 -235.3C38 -234.4 76 -185.1 127.2 -146.9Z" stroke="#BC6FF1" fill="none" stroke-width="50"></path>
        </g>
        <g transform="translate(1635 1307)">
            <path d="M241.9 -274.3C313.1 -228.5 370.1 -151.9 364.6 -79.6C359.2 -7.3 291.2 60.8 242.3 134.6C193.4 208.4 163.6 288 116.9 292.7C70.2 297.3 6.6 226.9 -74.4 199.6C-155.4 172.2 -253.9 187.8 -297.7 152.3C-341.6 116.8 -330.8 30.2 -295.4 -31.4C-259.9 -93 -199.7 -129.6 -146.3 -178.6C-93 -227.5 -46.5 -288.8 19.4 -311.9C85.3 -335.1 170.7 -320.1 241.9 -274.3Z" stroke="#BC6FF1" fill="none" stroke-width="50"></path>
        </g>
        <g transform="translate(148 1726)">
            <path d="M150.7 -179.5C185.9 -150.1 198.5 -93.7 181.6 -52.3C164.8 -11 118.4 15.3 96.9 59.1C75.4 103 78.8 164.3 58.1 181.1C37.5 197.8 -7.1 170 -39.1 142.9C-71 115.8 -90.3 89.5 -116.2 59.7C-142.2 30 -174.9 -3.3 -177.9 -39.2C-181 -75.1 -154.3 -113.7 -119.7 -143.2C-85.1 -172.7 -42.6 -193.1 7.6 -202.2C57.8 -211.2 115.5 -208.9 150.7 -179.5Z" stroke="#7b6ff1" fill="none" stroke-width="50"></path>
        </g>
    </g>
</svg>